<svg width="26" height="26" viewBox="0 0 26 26" fill="none" xmlns="http://www.w3.org/2000/svg">
<path d="M18.8192 8.5975C18.6996 8.27338 18.5088 7.97999 18.2608 7.73918C18.02 7.49123 17.7268 7.3004 17.4025 7.18079C17.1395 7.07863 16.7443 6.95703 16.0165 6.9239C15.2292 6.888 14.9932 6.88026 13 6.88026C11.0066 6.88026 10.7706 6.8878 9.98347 6.92371C9.25568 6.95703 8.86034 7.07863 8.5975 7.18079C8.27318 7.3004 7.9798 7.49123 7.73918 7.73918C7.49123 7.97999 7.3004 8.27318 7.18059 8.5975C7.07843 8.86053 6.95683 9.25587 6.92371 9.98367C6.8878 10.7708 6.88007 11.0068 6.88007 13.0002C6.88007 14.9934 6.8878 15.2294 6.92371 16.0167C6.95683 16.7445 7.07843 17.1397 7.18059 17.4027C7.3004 17.727 7.49103 18.0202 7.73898 18.261C7.9798 18.509 8.27298 18.6998 8.59731 18.8194C8.86034 18.9218 9.25568 19.0434 9.98347 19.0765C10.7706 19.1124 11.0064 19.1199 12.9998 19.1199C14.9934 19.1199 15.2294 19.1124 16.0163 19.0765C16.7441 19.0434 17.1395 18.9218 17.4025 18.8194C18.0535 18.5683 18.5681 18.0537 18.8192 17.4027C18.9214 17.1397 19.043 16.7445 19.0763 16.0167C19.1122 15.2294 19.1197 14.9934 19.1197 13.0002C19.1197 11.0068 19.1122 10.7708 19.0763 9.98367C19.0432 9.25587 18.9216 8.86053 18.8192 8.5975ZM13 16.8332C10.8829 16.8332 9.16661 15.1171 9.16661 13C9.16661 10.8829 10.8829 9.16681 13 9.16681C15.1169 9.16681 16.8332 10.8829 16.8332 13C16.8332 15.1171 15.1169 16.8332 13 16.8332ZM16.9847 9.91107C16.49 9.91107 16.0889 9.50998 16.0889 9.01526C16.0889 8.52054 16.49 8.11944 16.9847 8.11944C17.4795 8.11944 17.8806 8.52054 17.8806 9.01526C17.8804 9.50998 17.4795 9.91107 16.9847 9.91107Z" fill="#75FFCC"/>
<path d="M15.4883 13C15.4883 14.3743 14.3743 15.4883 13 15.4883C11.6257 15.4883 10.5117 14.3743 10.5117 13C10.5117 11.6257 11.6257 10.5117 13 10.5117C14.3743 10.5117 15.4883 11.6257 15.4883 13Z" fill="#75FFCC"/>
<path d="M24.1249 0H1.87514C0.839478 0 0 0.839478 0 1.87514V24.1249C0 25.1605 0.839478 26 1.87514 26H24.1249C25.1605 26 26 25.1605 26 24.1249V1.87514C26 0.839478 25.1605 0 24.1249 0V0ZM20.4198 16.0776C20.3837 16.8723 20.2574 17.4148 20.0729 17.8897C19.6851 18.8924 18.8924 19.6851 17.8897 20.0729C17.415 20.2574 16.8723 20.3835 16.0778 20.4198C15.2818 20.4561 15.0275 20.4648 13.0002 20.4648C10.9727 20.4648 10.7186 20.4561 9.92238 20.4198C9.12793 20.3835 8.58521 20.2574 8.11052 20.0729C7.61223 19.8854 7.16115 19.5916 6.78822 19.2118C6.40855 18.8391 6.11478 18.3878 5.92732 17.8897C5.74284 17.415 5.61649 16.8723 5.58038 16.0778C5.54369 15.2816 5.53516 15.0273 5.53516 13C5.53516 10.9727 5.54369 10.7184 5.58018 9.92238C5.61629 9.12773 5.74245 8.58521 5.92693 8.11032C6.11438 7.61223 6.40836 7.16095 6.78822 6.78822C7.16095 6.40836 7.61223 6.11458 8.11032 5.92712C8.58521 5.74265 9.12773 5.61649 9.92238 5.58018C10.7184 5.54388 10.9727 5.53516 13 5.53516C15.0273 5.53516 15.2816 5.54388 16.0776 5.58038C16.8723 5.61649 17.4148 5.74265 17.8897 5.92693C18.3878 6.11438 18.8391 6.40836 19.212 6.78822C19.5916 7.16115 19.8856 7.61223 20.0729 8.11032C20.2576 8.58521 20.3837 9.12773 20.42 9.92238C20.4563 10.7184 20.4648 10.9727 20.4648 13C20.4648 15.0273 20.4563 15.2816 20.4198 16.0776Z" fill="#75FFCC"/>
</svg>
