<svg width="26" height="26" viewBox="0 0 26 26" fill="none" xmlns="http://www.w3.org/2000/svg">
<g filter="url(#filter0_d)">
<path d="M24.1249 0H1.87514C0.839478 0 0 0.839478 0 1.87514V24.1249C0 25.1605 0.839478 26 1.87514 26H24.1249C25.1605 26 26 25.1605 26 24.1249V1.87514C26 0.839478 25.1605 0 24.1249 0ZM9.22235 19.6523H6.05626V10.1271H9.22235V19.6523ZM7.6394 8.82642H7.61877C6.55634 8.82642 5.8692 8.09505 5.8692 7.18098C5.8692 6.24629 6.57736 5.53516 7.66043 5.53516C8.7435 5.53516 9.41 6.24629 9.43063 7.18098C9.43063 8.09505 8.7435 8.82642 7.6394 8.82642ZM20.6386 19.6523H17.4729V14.5566C17.4729 13.2759 17.0145 12.4025 15.8689 12.4025C14.9944 12.4025 14.4734 12.9917 14.2445 13.5604C14.1608 13.7639 14.1404 14.0484 14.1404 14.333V19.6523H10.9745C10.9745 19.6523 11.016 11.0207 10.9745 10.1271H14.1404V11.4758C14.5611 10.8267 15.3139 9.90353 16.9937 9.90353C19.0767 9.90353 20.6386 11.2649 20.6386 14.1906V19.6523Z" fill="#75FFCC"/>
</g>
<defs>
<filter id="filter0_d" x="-20" y="-20" width="66" height="66" filterUnits="userSpaceOnUse" color-interpolation-filters="sRGB">
<feFlood flood-opacity="0" result="BackgroundImageFix"/>
<feColorMatrix in="SourceAlpha" type="matrix" values="0 0 0 0 0 0 0 0 0 0 0 0 0 0 0 0 0 0 127 0"/>
<feOffset/>
<feGaussianBlur stdDeviation="10"/>
<feColorMatrix type="matrix" values="0 0 0 0 0 0 0 0 0 0 0 0 0 0 0 0 0 0 0.25 0"/>
<feBlend mode="normal" in2="BackgroundImageFix" result="effect1_dropShadow"/>
<feBlend mode="normal" in="SourceGraphic" in2="effect1_dropShadow" result="shape"/>
</filter>
</defs>
</svg>
