<svg width="26" height="26" viewBox="0 0 26 26" fill="none" xmlns="http://www.w3.org/2000/svg">
<path d="M24.1249 0H1.87515C0.839465 0 0 0.839465 0 1.87515V24.1249C0 25.1605 0.839465 26 1.87515 26H24.1249C25.1605 26 26 25.1605 26 24.1249V1.87515C26 0.839465 25.1605 0 24.1249 0V0ZM19.5125 9.95104V11.7087C18.6837 11.709 17.8784 11.5466 17.1189 11.2262C16.6305 11.02 16.1755 10.7543 15.7594 10.4333L15.7718 15.8436C15.7666 17.0619 15.2846 18.2066 14.4123 19.0688C13.7024 19.7706 12.8028 20.2169 11.8278 20.3613C11.5987 20.3952 11.3656 20.4126 11.1298 20.4126C10.0861 20.4126 9.09513 20.0745 8.28455 19.4507C8.13201 19.3332 7.98616 19.2059 7.84723 19.0688C6.90183 18.1344 6.41433 16.8679 6.49639 15.5357C6.55906 14.5215 6.96505 13.5543 7.64192 12.7963C8.53745 11.7931 9.79027 11.2363 11.1298 11.2363C11.3656 11.2363 11.5987 11.254 11.8278 11.288V11.9379V13.7457C11.6106 13.6741 11.3786 13.6347 11.137 13.6347C9.91321 13.6347 8.92313 14.6331 8.94141 15.8578C8.95299 16.6414 9.38107 17.3264 10.0124 17.704C10.3091 17.8814 10.6504 17.9913 11.0147 18.0113C11.3 18.027 11.5741 17.9873 11.8278 17.9035C12.7022 17.6146 13.3329 16.7934 13.3329 15.8248L13.3358 12.2017V5.58736H15.7565C15.7588 5.8272 15.7831 6.06125 15.8284 6.28799C16.0111 7.20586 16.5284 8.00221 17.2485 8.54511C17.8764 9.0187 18.6582 9.29942 19.5056 9.29942C19.5062 9.29942 19.5132 9.29942 19.5126 9.29886V9.95104H19.5125Z" fill="#75FFCC"/>
</svg>
